<?xml version="1.0" standalone="no"?>
<!DOCTYPE svg PUBLIC "-//W3C//DTD SVG 20010904//EN"
 "http://www.w3.org/TR/2001/REC-SVG-20010904/DTD/svg10.dtd">
<svg version="1.0" xmlns="http://www.w3.org/2000/svg"
 width="594.000000pt" height="530.000000pt" viewBox="0 0 594.000000 530.000000"
 preserveAspectRatio="xMidYMid meet">

<g transform="translate(0.000000,530.000000) scale(0.100000,-0.100000)"
fill="#000000" stroke="none">
<path d="M6 5284 c-8 -20 -8 -5232 0 -5261 l6 -23 2954 0 c2619 0 2954 2 2954
15 0 8 5 15 10 15 7 0 10 880 10 2621 0 2258 -2 2622 -14 2635 -13 12 -421 14
-2964 14 -2681 0 -2950 -1 -2956 -16z m3209 -1209 c585 -95 1051 -519 1195
-1089 122 -482 6 -972 -317 -1342 -72 -82 -214 -206 -302 -262 -158 -101 -372
-187 -546 -218 -133 -24 -383 -24 -515 -1 -295 53 -570 196 -778 404 -148 149
-242 284 -304 437 -26 63 -28 78 -28 202 0 100 -3 134 -12 134 -9 0 -8 4 2 10
13 9 13 10 0 10 -13 0 -13 1 0 10 13 9 13 10 0 10 -13 0 -13 1 0 10 13 9 13
10 0 10 -13 0 -13 1 0 10 13 9 13 10 0 10 -13 0 -13 1 0 10 13 9 13 10 0 10
-13 0 -13 1 0 10 13 9 13 10 0 10 -13 0 -13 1 0 10 13 9 13 10 0 10 -13 0 -13
1 0 10 13 9 13 10 0 10 -13 0 -13 1 0 10 13 9 13 10 0 10 -13 0 -13 1 0 10 13
9 13 10 0 10 -13 0 -13 1 0 10 13 9 13 10 0 10 -13 0 -13 1 0 10 13 9 13 10 0
10 -13 0 -13 1 0 10 13 9 13 10 0 10 -13 0 -13 1 0 10 13 9 13 10 0 10 -13 0
-13 1 0 10 13 9 13 10 0 10 -13 0 -13 1 0 10 13 9 13 10 0 10 -13 0 -13 1 0
10 13 9 13 10 0 10 -13 0 -13 1 0 10 13 9 13 10 0 10 -13 0 -13 1 0 10 13 9
13 10 0 10 -13 0 -13 1 0 10 13 9 13 10 0 11 -12 0 -12 2 -1 6 11 5 11 7 0 14
-12 7 -11 9 1 9 13 0 13 1 0 10 -10 6 -11 10 -2 10 9 0 12 45 12 194 l0 193
55 112 c203 414 603 706 1075 786 105 18 356 18 465 0z"/>
<path d="M2675 3896 c-79 -35 -97 -142 -35 -205 74 -73 198 -33 224 71 8 34
-12 85 -47 117 -31 29 -99 37 -142 17z m105 -34 c41 -51 45 -135 9 -178 -14
-18 -68 -18 -91 0 -23 17 -48 78 -48 116 0 89 79 127 130 62z"/>
<path d="M3283 3883 c-32 -6 -79 -65 -87 -107 -9 -47 18 -106 55 -124 54 -25
84 -25 110 0 14 12 18 17 9 11 -9 -7 -33 -13 -53 -13 -69 0 -96 72 -58 157 40
86 131 86 148 0 5 -27 7 -28 14 -12 4 11 8 27 8 36 2 28 -94 62 -146 52z"/>
<path d="M2313 3750 c-98 -58 -102 -62 -91 -85 15 -34 40 -42 32 -10 -4 18 1
31 21 51 l27 27 31 -49 c62 -100 78 -136 66 -150 -19 -23 7 -17 51 11 44 28
50 36 21 28 -14 -4 -28 12 -64 74 -63 108 -63 108 -28 123 26 10 35 10 56 -4
14 -9 25 -14 25 -11 0 10 -32 55 -39 55 -3 0 -52 -27 -108 -60z"/>
<path d="M3593 3723 c-21 -7 -39 -13 -40 -13 -11 -1 -43 -76 -43 -101 0 -64
65 -129 129 -129 65 0 131 62 131 123 0 31 -21 77 -44 96 -14 12 -14 10 0 -18
29 -59 -22 -160 -90 -177 -58 -14 -104 36 -91 98 13 57 94 126 136 115 11 -3
17 -2 14 3 -9 15 -65 17 -102 3z"/>
<path d="M2014 3519 c-30 -29 -54 -56 -54 -60 0 -5 13 -9 28 -9 36 0 156 -117
146 -143 -10 -28 10 -19 49 21 43 44 45 51 15 45 -16 -3 -32 5 -52 26 l-29 30
27 31 c46 55 24 110 -43 110 -25 0 -44 -11 -87 -51z m94 -1 c14 -14 16 -64 4
-72 -5 -3 -25 9 -46 25 -29 25 -34 34 -25 45 14 17 51 18 67 2z"/>
<path d="M2825 3524 c-346 -61 -635 -316 -734 -649 -59 -195 -40 -446 48 -639
109 -241 343 -436 608 -508 113 -30 345 -30 456 0 337 92 590 351 674 688 26
106 23 304 -6 419 -91 357 -375 624 -731 686 -124 22 -205 22 -315 3z m360
-65 c524 -128 805 -704 584 -1195 -107 -239 -318 -417 -574 -485 -105 -28
-298 -30 -400 -5 -191 46 -308 113 -438 250 -100 105 -174 237 -214 381 -24
87 -28 278 -9 375 99 489 574 796 1051 679z"/>
<path d="M2920 3423 c-298 -21 -588 -234 -694 -511 -152 -397 17 -824 399
-1012 120 -59 215 -82 350 -83 135 -1 236 23 362 84 201 99 343 266 413 484
31 97 39 290 16 398 -34 167 -94 275 -226 408 -82 82 -108 102 -190 143 -138
67 -288 99 -430 89z m282 -134 c310 -65 517 -447 444 -821 -53 -268 -197 -446
-416 -514 -67 -21 -427 -20 -501 2 -176 51 -326 212 -389 417 -61 197 -48 407
35 582 87 181 203 283 376 329 66 18 373 21 451 5z"/>
<path d="M2782 3260 c-158 -24 -321 -172 -395 -359 -47 -116 -61 -327 -32
-466 35 -169 171 -351 308 -416 134 -62 247 -61 383 5 234 114 369 445 305
751 -66 320 -306 524 -569 485z m108 -255 c0 -25 5 -37 18 -41 67 -21 97 -42
124 -83 15 -25 28 -48 28 -53 0 -8 -42 -32 -77 -42 -18 -6 -25 -1 -38 23 -16
32 -61 61 -93 61 -35 0 -72 -38 -72 -74 0 -43 17 -57 124 -100 134 -54 176
-103 176 -205 0 -93 -50 -162 -137 -187 l-53 -15 0 -45 c0 -44 0 -44 -35 -44
-35 0 -35 0 -35 44 l0 45 -53 15 c-60 17 -107 61 -132 120 -9 21 -15 39 -13
41 5 5 111 35 113 32 1 -1 7 -16 14 -34 17 -42 55 -66 109 -67 36 -1 48 4 68
27 51 60 25 104 -89 147 -45 18 -97 41 -115 52 -39 24 -82 103 -82 152 0 76
64 167 128 182 39 10 52 23 52 55 0 26 3 29 35 29 33 0 35 -2 35 -35z"/>
<path d="M3132 3212 c2 -5 22 -25 44 -45 l41 -37 98 0 c90 0 96 1 84 17 -8 9
-34 29 -58 45 -40 25 -54 28 -129 28 -46 0 -82 -4 -80 -8z"/>
<path d="M3290 3039 c0 -7 9 -27 21 -45 l21 -34 104 0 c57 0 104 2 104 5 0 3
-11 23 -25 45 l-25 40 -100 0 c-68 0 -100 -4 -100 -11z"/>
<path d="M3375 2843 c4 -21 9 -41 11 -45 3 -5 52 -8 110 -8 113 0 113 0 93 59
l-11 31 -105 0 -105 0 7 -37z"/>
<path d="M3310 2240 c-11 -21 -20 -42 -20 -45 0 -3 46 -5 103 -5 l102 0 23 40
c12 21 22 41 22 44 0 4 -47 6 -105 6 l-105 0 -20 -40z"/>
<path d="M3936 3488 c-9 -31 -128 -128 -156 -128 -22 0 -21 -1 7 -34 32 -40
43 -44 43 -17 0 10 24 38 53 63 75 64 97 77 116 70 10 -3 5 8 -14 30 -36 43
-41 45 -49 16z"/>
<path d="M1855 3310 c-20 -39 -19 -53 5 -45 15 5 23 -2 40 -34 l20 -41 -45 0
c-34 0 -45 4 -45 16 0 28 -24 9 -50 -38 -25 -47 -23 -71 4 -49 8 7 46 15 84
18 62 5 74 3 101 -16 17 -12 31 -29 31 -37 0 -27 20 -14 40 26 25 49 25 63 1
55 -38 -12 -91 26 -122 87 -16 32 -29 64 -29 73 0 25 -18 17 -35 -15z"/>
<path d="M4097 3281 c-5 -21 -122 -81 -175 -90 -31 -6 -32 -7 -17 -26 12 -15
18 -16 22 -7 5 14 142 86 149 79 3 -2 -18 -53 -46 -112 -28 -59 -48 -110 -45
-113 3 -3 45 14 94 38 56 27 96 41 110 37 25 -6 25 -6 9 27 -11 26 -11 26 -25
6 -13 -18 -133 -87 -133 -76 0 3 20 48 45 102 49 106 50 111 31 137 -13 17
-14 17 -19 -2z"/>
<path d="M1695 2924 c-16 -52 -17 -62 -4 -98 21 -61 68 -89 143 -84 51 4 62 9
82 34 44 54 43 131 -1 160 -34 22 -52 7 -20 -18 33 -26 34 -76 2 -106 -46 -43
-169 -14 -183 43 -10 41 0 60 45 81 47 23 46 28 -10 39 l-36 7 -18 -58z"/>
<path d="M4178 2890 c-9 -6 -22 -27 -29 -48 -6 -20 -18 -45 -27 -54 -17 -21
-53 -23 -70 -6 -8 8 -12 9 -12 1 0 -17 28 -42 56 -49 37 -9 69 18 90 78 17 48
22 53 49 53 26 0 30 -4 33 -32 3 -26 -2 -34 -25 -47 l-28 -15 33 -1 c31 0 32
1 32 44 0 36 -5 48 -26 65 -29 23 -50 26 -76 11z"/>
<path d="M4030 2873 c1 -25 16 -30 39 -12 l23 19 -31 0 c-17 0 -31 -3 -31 -7z"/>
<path d="M4031 2814 c0 -11 3 -14 6 -6 3 7 2 16 -1 19 -3 4 -6 -2 -5 -13z"/>
<path d="M1733 2480 c-42 -25 -53 -48 -53 -108 0 -62 28 -102 71 -102 16 0 29
5 29 10 0 6 -9 10 -19 10 -11 0 -27 10 -35 22 -43 60 7 128 93 128 55 0 101
-28 101 -62 0 -11 -14 -33 -31 -49 -38 -35 -32 -46 18 -33 l37 9 -3 55 c-3 67
-22 105 -61 125 -40 21 -108 19 -147 -5z"/>
<path d="M4057 2481 c-4 -16 -1 -17 24 -8 19 8 24 14 16 19 -20 13 -34 9 -40
-11z"/>
<path d="M4185 2479 c-11 -5 -31 -25 -44 -44 -37 -55 -83 -56 -94 -2 -4 20 -4
19 -6 -3 -2 -41 25 -70 64 -70 27 0 39 8 65 41 27 34 38 40 64 37 20 -2 35
-11 44 -28 13 -24 13 -24 8 10 -4 19 -12 40 -19 47 -18 17 -59 24 -82 12z"/>
<path d="M4261 2366 c-6 -8 -24 -17 -39 -21 -25 -7 -25 -8 -7 -15 37 -16 52
-11 58 18 6 33 4 37 -12 18z"/>
<path d="M3982 2225 c-11 -23 -10 -25 16 -25 15 -1 38 -7 52 -15 44 -25 47
-16 3 11 -24 14 -43 32 -43 40 0 22 -16 16 -28 -11z"/>
<path d="M1960 2212 c0 -10 -14 -44 -31 -75 -34 -63 -75 -93 -115 -83 -30 8
-30 -1 -2 -59 22 -45 51 -63 41 -26 -4 15 5 25 38 42 35 18 54 21 106 16 35
-2 70 -10 78 -17 20 -17 19 1 -2 39 -19 33 -33 40 -33 16 0 -11 -11 -15 -39
-15 -22 0 -42 3 -45 8 -2 4 6 24 18 44 17 29 25 35 34 26 24 -24 23 2 -2 51
-27 52 -46 66 -46 33z"/>
<path d="M4124 2151 c4 -5 -36 -19 -91 -31 -91 -20 -133 -42 -133 -70 0 -5 8
-6 18 -4 21 6 177 -69 189 -91 8 -14 11 -12 21 10 11 24 11 26 -7 20 -13 -4
-48 8 -97 33 l-78 39 69 16 c39 8 96 21 128 28 31 7 57 16 57 21 0 4 -2 8 -4
8 -2 0 -20 7 -41 16 -20 8 -34 11 -31 5z"/>
<path d="M2130 1919 c0 -30 -127 -148 -152 -141 -25 6 -23 -2 13 -43 33 -37
60 -47 53 -17 -4 15 37 72 53 72 3 0 21 -14 40 -30 39 -34 66 -33 95 4 30 37
21 64 -51 139 -40 42 -51 46 -51 16z m70 -70 c24 -43 -39 -91 -70 -54 -11 13
-8 21 15 45 34 36 41 37 55 9z"/>
<path d="M3790 1904 c-29 -30 -31 -35 -13 -30 17 5 36 -6 90 -50 77 -66 85
-74 78 -91 -8 -24 10 -13 38 22 27 34 27 35 6 35 -23 0 -147 104 -158 132 -6
16 -11 14 -41 -18z"/>
<path d="M2316 1725 c-21 -33 -15 -42 14 -22 17 12 29 13 51 5 16 -5 29 -13
29 -16 0 -9 -81 -144 -97 -164 -8 -9 -21 -14 -29 -11 -33 12 -10 -17 32 -42
44 -26 70 -27 46 -3 -9 9 -2 30 30 87 64 119 60 115 91 88 18 -15 27 -33 28
-52 l0 -30 16 32 c9 18 15 34 12 36 -11 10 -178 107 -191 112 -9 4 -21 -4 -32
-20z"/>
<path d="M3586 1737 c-15 -11 -12 -12 23 -9 37 4 45 0 80 -35 72 -72 66 -165
-13 -171 -48 -4 -80 17 -107 70 -16 31 -20 53 -16 86 l5 44 -19 -28 c-12 -18
-19 -47 -19 -76 0 -114 133 -164 214 -79 55 58 43 162 -24 196 -35 18 -100 20
-124 2z"/>
<path d="M3315 1599 c-39 -6 -57 -16 -84 -45 -31 -34 -33 -40 -29 -92 4 -48
10 -60 41 -89 40 -36 71 -41 127 -22 22 8 37 22 47 46 8 20 12 37 10 40 -3 2
-9 -10 -15 -26 -18 -51 -103 -59 -139 -13 -20 27 -35 91 -28 123 8 34 41 69
66 69 10 0 32 -12 50 -27 l33 -28 -7 25 c-4 14 -7 31 -7 38 0 6 -3 11 -7 11
-5 -1 -30 -5 -58 -10z"/>
<path d="M2671 1563 c-66 -33 -90 -116 -51 -180 67 -111 240 -64 240 64 0 101
-97 161 -189 116z m114 -18 c44 -43 28 -166 -24 -195 -78 -41 -138 47 -97 144
17 41 53 76 78 76 11 0 30 -11 43 -25z"/>
</g>
</svg>
